<svg xmlns="http://www.w3.org/2000/svg" width="25" height="25" viewBox="0 0 25 25">
  <g id="check" transform="translate(-389 -1819)">
    <path id="check_1_" data-name="check (1)" d="M13.891,6l-6.8,6.8L4,9.709" transform="translate(392.93 1822.1)" fill="none" stroke="#ff00d4" stroke-linecap="round" stroke-linejoin="round" stroke-width="2"/>
    <g id="Path_7" data-name="Path 7" transform="translate(389 1819)" fill="none">
      <path d="M12.5,0A12.5,12.5,0,1,1,0,12.5,12.5,12.5,0,0,1,12.5,0Z" stroke="none"/>
      <path d="M 12.5 2 C 6.71027946472168 2 2 6.71027946472168 2 12.5 C 2 18.28972053527832 6.71027946472168 23 12.5 23 C 18.28972053527832 23 23 18.28972053527832 23 12.5 C 23 6.71027946472168 18.28972053527832 2 12.5 2 M 12.5 0 C 19.40356063842773 0 25 5.596439361572266 25 12.5 C 25 19.40356063842773 19.40356063842773 25 12.5 25 C 5.596439361572266 25 0 19.40356063842773 0 12.5 C 0 5.596439361572266 5.596439361572266 0 12.5 0 Z" stroke="none" fill="#ff00d4"/>
    </g>
  </g>
</svg>
