<svg xmlns="http://www.w3.org/2000/svg" width="95.609" height="27.584" viewBox="0 0 95.609 27.584"><path d="M1.64 20.566c10.104-2.509 19.99-5.777 30.073-8.352 4.075-1.04 8.153-2.122 12.25-3.074 3.656-.85 7.722-1.725 11.456-.88l-.285-1.31c-4.955 3.095-10.438 5.199-15.625 7.875-5.428 2.797-10.68 5.988-16.5 7.933-.869.291-.24 1.347.494 1.258a32.785 32.785 0 008.287-2.438c2.75-1.094 5.532-2.109 8.313-3.123 5.717-2.087 11.49-3.929 17.317-5.694s11.599-3.586 17.465-5.168c6.032-1.628 12.162-2.77 18.28-4.021.638-.13.314-1.013-.24-.997-5.857.153-11.641 1.674-17.277 3.182-5.851 1.567-11.631 3.402-17.42 5.19-5.754 1.778-11.483 3.568-17.15 5.632-3.017 1.1-6.034 2.21-9.017 3.387-2.888 1.135-5.753 2.39-8.866 2.738l.494 1.257c5.737-1.905 10.958-4.996 16.306-7.767 5.314-2.754 10.958-4.872 16.05-8.047a.707.707 0 00-.285-1.31c-3.7-.845-7.647-.067-11.279.775-4.021.931-8.053 2.035-12.022 3.167-10.352 2.957-20.458 6.742-30.843 9.56-.121.032-.095.257.032.226" fill="#ff00d4" stroke="#ff00d4"/></svg>